<svg width="64" height="64" viewBox="0 0 64 64" fill="none" xmlns="http://www.w3.org/2000/svg">
<path d="M52.625 28.375C52.625 28.1 52.4 27.875 52.125 27.875H48.375C48.1 27.875 47.875 28.1 47.875 28.375C47.875 37.1438 40.7688 44.25 32 44.25C23.2312 44.25 16.125 37.1438 16.125 28.375C16.125 28.1 15.9 27.875 15.625 27.875H11.875C11.6 27.875 11.375 28.1 11.375 28.375C11.375 38.9187 19.2875 47.6187 29.5 48.85V55.25H20.4188C19.5625 55.25 18.875 56.1437 18.875 57.25V59.5C18.875 59.775 19.05 60 19.2625 60H44.7375C44.95 60 45.125 59.775 45.125 59.5V57.25C45.125 56.1437 44.4375 55.25 43.5812 55.25H34.25V48.8812C44.5813 47.7562 52.625 39.0063 52.625 28.375ZM32 39C37.8688 39 42.625 34.3 42.625 28.5V14.5C42.625 8.7 37.8688 4 32 4C26.1312 4 21.375 8.7 21.375 14.5V28.5C21.375 34.3 26.1312 39 32 39ZM26.125 14.5C26.125 11.3375 28.7438 8.75 32 8.75C35.2562 8.75 37.875 11.3375 37.875 14.5V28.5C37.875 31.6625 35.2562 34.25 32 34.25C28.7438 34.25 26.125 31.6625 26.125 28.5V14.5Z" fill="white"/>
</svg>
