<svg width="64" height="64" viewBox="0 0 64 64" fill="none" xmlns="http://www.w3.org/2000/svg">
<path d="M56.562 4.56201L36.562 24.562L34 22V21.938L33.938 21.876C32.658 20.736 30.984 20.188 29.374 20.188C27.766 20.188 26.21 20.788 25 22L24.688 22.25L23.688 23.25L23 23.812L4.75 38L3 39.438L24.562 61L26 59.25L40.126 41.124L40.186 41.188L42.186 39.188H42.25L42.312 39.124C44.592 36.554 44.61 32.61 42.188 30.188L39.438 27.438L59.438 7.43801L56.562 4.56201ZM29.376 24.188C29.992 24.172 30.672 24.382 31.188 24.812C31.21 24.828 31.228 24.86 31.25 24.874L39.376 33C40.126 33.75 40.196 35.344 39.376 36.376C39.344 36.414 39.344 36.46 39.312 36.5L38.688 37.062L27.124 25.5L27.812 24.812C28.196 24.43 28.758 24.204 29.374 24.188H29.376ZM24.06 28.06L35.936 39.936L24.186 54.936L21.31 52.06L25.622 47.56L22.748 44.81L18.498 49.248L15.872 46.622L23.622 38.81L20.812 36L13 43.75L9.062 39.812L24.06 28.06Z" fill="white"/>
</svg>
