<svg width="64" height="64" viewBox="0 0 64 64" fill="none" xmlns="http://www.w3.org/2000/svg">
<path d="M60.2133 14.7911L49.7778 4.30222C49.0882 3.61612 48.155 3.23096 47.1822 3.23096C46.2095 3.23096 45.2763 3.61612 44.5867 4.30222L7.59112 41.2444L4.21334 55.8222C4.09682 56.3551 4.10082 56.9073 4.22503 57.4385C4.34925 57.9696 4.59056 58.4663 4.93132 58.8923C5.27209 59.3182 5.7037 59.6627 6.19463 59.9005C6.68557 60.1383 7.22342 60.2634 7.7689 60.2667C8.02307 60.2923 8.27917 60.2923 8.53334 60.2667L23.2711 56.8889L60.2133 19.9822C60.8994 19.2926 61.2846 18.3594 61.2846 17.3867C61.2846 16.4139 60.8994 15.4807 60.2133 14.7911ZM21.4933 53.6889L7.68001 56.5867L10.8267 43.04L38.5067 15.4667L49.1733 26.1333L21.4933 53.6889ZM51.5556 23.5556L40.8889 12.8889L47.0756 6.73778L57.5645 17.4044L51.5556 23.5556Z" fill="black"/>
</svg>
