<svg width="64" height="64" viewBox="0 0 64 64" fill="none" xmlns="http://www.w3.org/2000/svg">
<path fill-rule="evenodd" clip-rule="evenodd" d="M28.1583 60.32H36.1617L38.3848 53.2059C39.8669 52.7613 41.349 52.1684 42.6829 51.4274L49.2042 54.688L54.8362 49.056L51.5756 42.5347C52.3166 41.2008 52.9095 39.7187 53.3541 38.2366L60.1718 36.0135V28.0101L53.3541 25.7869C52.9095 24.3048 52.3166 22.8227 51.5756 21.4888L54.8362 14.9676L49.2042 9.33558L42.6829 12.5962C41.349 11.8552 39.8669 11.2623 38.3848 10.8177L36.1617 4H28.1583L25.7869 10.9659C24.3048 11.4105 22.8227 12.0034 21.4888 12.7444L14.9676 9.48379L9.33558 15.1158L12.5962 21.637C11.8552 22.9709 11.2623 24.453 10.8177 25.9352L4 28.1583V36.1617L10.9659 38.533C11.4105 40.0152 12.0034 41.4973 12.7444 42.8312L9.48379 49.3524L15.1158 54.9844L21.637 51.7238C22.9709 52.4648 24.453 53.0577 25.9352 53.5023L28.1583 60.32ZM34.0867 57.3558H30.2333L28.1583 50.9827L27.4173 50.8345C25.6387 50.3899 24.0084 49.6488 22.3781 48.7596L21.637 48.3149L15.7086 51.2792L13.0408 48.6114L16.0051 42.6829L15.5604 41.9419C14.6712 40.3116 13.9301 38.6813 13.4855 36.9027L13.3373 36.1617L6.96421 34.0867V30.2333L13.3373 28.1583L13.4855 27.4173C13.9301 25.6387 14.6712 23.8602 15.5604 22.3781L16.0051 21.637L13.0408 15.7086L15.7086 13.0408L21.637 16.0051L22.3781 15.5604C24.0084 14.6712 25.6387 13.9301 27.4173 13.4855L28.1583 13.3373L30.2333 6.96421H34.0867L36.1617 13.3373L36.9027 13.4855C38.6813 13.9301 40.3116 14.6712 41.9419 15.5604L42.6829 16.0051L48.6114 13.0408L51.2792 15.7086L48.3149 21.637L48.7596 22.3781C49.6488 24.0084 50.3899 25.6387 50.8345 27.4173L50.9827 28.1583L57.3558 30.2333V34.0867L50.9827 36.1617L50.8345 36.9027C50.3899 38.6813 49.6488 40.4598 48.7596 41.9419L48.3149 42.6829L51.2792 48.6114L48.6114 51.2792L42.6829 48.3149L41.9419 48.7596C40.3116 49.6488 38.6813 50.3899 36.9027 50.8345L36.1617 50.9827L34.0867 57.3558ZM18.8211 32.16C18.8211 39.5705 24.7495 45.4989 32.16 45.4989C39.5705 45.4989 45.499 39.5705 45.499 32.16C45.499 24.7495 39.5705 18.821 32.16 18.821C24.7495 18.821 18.8211 24.7495 18.8211 32.16ZM21.7853 32.16C21.7853 26.3798 26.3798 21.7852 32.16 21.7852C37.9402 21.7852 42.5348 26.3798 42.5348 32.16C42.5348 37.9402 37.9402 42.5347 32.16 42.5347C26.3798 42.5347 21.7853 37.9402 21.7853 32.16Z" fill="black"/>
</svg>
