<svg width="64" height="64" viewBox="0 0 64 64" fill="none" xmlns="http://www.w3.org/2000/svg">
<path d="M32 46C31.4067 46 30.8266 46.1759 30.3333 46.5056C29.8399 46.8352 29.4554 47.3038 29.2284 47.852C29.0013 48.4001 28.9419 49.0033 29.0576 49.5853C29.1734 50.1672 29.4591 50.7018 29.8787 51.1213C30.2982 51.5409 30.8328 51.8266 31.4147 51.9424C31.9967 52.0581 32.5999 51.9987 33.148 51.7716C33.6962 51.5446 34.1648 51.1601 34.4944 50.6667C34.8241 50.1734 35 49.5933 35 49C35 48.2044 34.6839 47.4413 34.1213 46.8787C33.5587 46.3161 32.7957 46 32 46Z" fill="black"/>
<path d="M30 24H34V42H30V24Z" fill="black"/>
<path d="M58 60H6.00002C5.65656 59.9999 5.31891 59.9113 5.01962 59.7428C4.72033 59.5743 4.46948 59.3316 4.29123 59.038C4.11298 58.7444 4.01335 58.4098 4.00193 58.0666C3.99051 57.7233 4.06769 57.3828 4.22602 57.078L30.226 7.07805C30.395 6.75352 30.6497 6.48155 30.9625 6.29175C31.2753 6.10195 31.6342 6.00159 32 6.00159C32.3659 6.00159 32.7248 6.10195 33.0375 6.29175C33.3503 6.48155 33.6051 6.75352 33.774 7.07805L59.774 57.078C59.9324 57.3828 60.0095 57.7233 59.9981 58.0666C59.9867 58.4098 59.8871 58.7444 59.7088 59.038C59.5306 59.3316 59.2797 59.5743 58.9804 59.7428C58.6811 59.9113 58.3435 59.9999 58 60ZM9.30002 56H54.7L54.702 55.994L32.004 12.34H31.996L9.29602 55.994L9.30002 56Z" fill="black"/>
</svg>
