<svg width="64" height="64" viewBox="0 0 64 64" fill="none" xmlns="http://www.w3.org/2000/svg">
<path d="M26.6667 32C26.6667 33.4145 27.2286 34.7711 28.2288 35.7713C29.229 36.7714 30.5855 37.3334 32 37.3334C33.4145 37.3334 34.771 36.7714 35.7712 35.7713C36.7714 34.7711 37.3333 33.4145 37.3333 32C37.3333 30.5855 36.7714 29.229 35.7712 28.2288C34.771 27.2286 33.4145 26.6667 32 26.6667C30.5855 26.6667 29.229 27.2286 28.2288 28.2288C27.2286 29.229 26.6667 30.5855 26.6667 32ZM26.6667 16C26.6667 17.4145 27.2286 18.7711 28.2288 19.7713C29.229 20.7715 30.5855 21.3334 32 21.3334C33.4145 21.3334 34.771 20.7715 35.7712 19.7713C36.7714 18.7711 37.3333 17.4145 37.3333 16C37.3333 14.5855 36.7714 13.229 35.7712 12.2288C34.771 11.2286 33.4145 10.6667 32 10.6667C30.5855 10.6667 29.229 11.2286 28.2288 12.2288C27.2286 13.229 26.6667 14.5855 26.6667 16V16ZM26.6667 48C26.6667 49.4145 27.2286 50.7711 28.2288 51.7713C29.229 52.7714 30.5855 53.3334 32 53.3334C33.4145 53.3334 34.771 52.7714 35.7712 51.7713C36.7714 50.7711 37.3333 49.4145 37.3333 48C37.3333 46.5855 36.7714 45.229 35.7712 44.2288C34.771 43.2286 33.4145 42.6667 32 42.6667C30.5855 42.6667 29.229 43.2286 28.2288 44.2288C27.2286 45.229 26.6667 46.5855 26.6667 48Z" fill="black"/>
</svg>
