<svg width="64" height="64" viewBox="0 0 64 64" fill="none" xmlns="http://www.w3.org/2000/svg">
<path d="M59.1214 15.293L46.707 2.87864C46.4291 2.59919 46.0986 2.37765 45.7345 2.22683C45.3704 2.07601 44.98 1.99892 44.5859 2.00001H7C6.20463 2.00094 5.44211 2.31731 4.8797 2.87971C4.31729 3.44212 4.00093 4.20465 4 5.00001V59C4.00093 59.7954 4.31729 60.5579 4.8797 61.1203C5.44211 61.6827 6.20463 61.9991 7 62H57C57.7954 61.9991 58.5579 61.6827 59.1203 61.1203C59.6827 60.5579 59.9991 59.7954 60 59V17.4141C60.0011 17.02 59.924 16.6296 59.7732 16.2656C59.6224 15.9015 59.4008 15.5709 59.1214 15.293ZM40 6.00001V18H22V6.00001H40ZM56 58H8V6.00001H18V22H44V6.00001H44.1716L56 17.8284V58Z" fill="#028AB6"/>
<path d="M31.5 28C29.2255 28 27.0021 28.6745 25.1109 29.9381C23.2198 31.2017 21.7458 32.9978 20.8754 35.0991C20.005 37.2005 19.7772 39.5128 20.221 41.7435C20.6647 43.9743 21.76 46.0234 23.3683 47.6317C24.9766 49.24 27.0257 50.3353 29.2565 50.779C31.4872 51.2228 33.7995 50.995 35.9009 50.1246C38.0022 49.2542 39.7983 47.7802 41.0619 45.8891C42.3255 43.9979 43 41.7745 43 39.5C42.9967 36.451 41.784 33.5279 39.6281 31.3719C37.4721 29.216 34.549 28.0033 31.5 28ZM31.5 47C30.0166 47 28.5666 46.5601 27.3332 45.736C26.0999 44.9119 25.1386 43.7406 24.5709 42.3701C24.0033 40.9997 23.8547 39.4917 24.1441 38.0368C24.4335 36.582 25.1478 35.2456 26.1967 34.1967C27.2456 33.1478 28.582 32.4335 30.0368 32.1441C31.4917 31.8547 32.9997 32.0032 34.3701 32.5709C35.7406 33.1386 36.9119 34.0999 37.736 35.3332C38.5601 36.5666 39 38.0166 39 39.5C38.9978 41.4884 38.2069 43.3948 36.8008 44.8008C35.3948 46.2069 33.4884 46.9977 31.5 47Z" fill="#028AB6"/>
</svg>
