<svg width="187" height="89" viewBox="0 0 187 89" fill="none" xmlns="http://www.w3.org/2000/svg">
<path d="M27.2291 44.3185C27.2291 45.6063 26.9808 46.8785 26.4844 48.1353C25.9879 49.392 25.2276 50.5091 24.2036 51.4865C23.1796 52.464 21.8686 53.2553 20.2705 53.8604C18.6725 54.4655 16.7796 54.768 14.592 54.768C12.1406 54.768 9.9297 54.4499 7.95927 53.8138C5.98885 53.1622 4.39855 52.4718 3.18836 51.7425C3.1263 50.2531 3.13406 48.7404 3.21164 47.2044C3.28921 45.6528 3.42885 44.1324 3.63055 42.6429H6.72582L7.58691 48.0887C7.63345 48.337 7.71103 48.6007 7.81964 48.88C7.94376 49.1593 8.14545 49.4385 8.42473 49.7178C9.02982 50.3384 9.91418 50.9047 11.0778 51.4167C12.2415 51.9287 13.5447 52.1847 14.9876 52.1847C17.2528 52.1847 18.975 51.6262 20.1542 50.5091C21.3488 49.3765 21.9462 47.856 21.9462 45.9476C21.9462 44.8305 21.7445 43.8686 21.3411 43.0618C20.9377 42.255 20.3792 41.5413 19.6655 40.9207C18.9518 40.3001 18.0829 39.7261 17.0589 39.1985C16.0504 38.671 14.9333 38.128 13.7076 37.5695C12.575 37.0419 11.4192 36.4679 10.24 35.8473C9.06085 35.2267 7.99806 34.4975 7.05164 33.6596C6.10521 32.8218 5.3217 31.8288 4.70109 30.6807C4.096 29.5171 3.79345 28.1518 3.79345 26.5847C3.79345 25.2039 4.04945 23.9316 4.56145 22.768C5.07345 21.5889 5.82594 20.5804 6.81891 19.7425C7.81188 18.8892 9.05309 18.2221 10.5425 17.7411C12.032 17.2601 13.7542 17.0196 15.7091 17.0196C17.4002 17.0196 19.1069 17.1981 20.8291 17.5549C22.5668 17.8962 24.0407 18.3617 25.2509 18.9513C25.3595 20.4873 25.375 21.9767 25.2975 23.4196C25.2354 24.847 25.1035 26.2356 24.9018 27.5855H21.9229L21.0153 22.8145C20.9532 22.5198 20.8446 22.2327 20.6895 21.9535C20.5498 21.6587 20.3248 21.3872 20.0145 21.1389C19.5336 20.72 18.8276 20.3554 17.8967 20.0451C16.9658 19.7193 15.9573 19.5564 14.8713 19.5564C12.8543 19.5564 11.3183 20.0373 10.2633 20.9993C9.20824 21.9457 8.68073 23.28 8.68073 25.0022C8.68073 26.0572 8.86691 26.9648 9.23927 27.7251C9.62715 28.4698 10.1857 29.1525 10.9149 29.7731C11.6441 30.3782 12.5362 30.96 13.5913 31.5185C14.6618 32.0771 15.8798 32.6822 17.2451 33.3338C18.5018 33.9234 19.7275 34.5595 20.9222 35.2422C22.1324 35.9093 23.1952 36.6696 24.1105 37.5229C25.0415 38.3762 25.7939 39.3615 26.368 40.4785C26.9421 41.5801 27.2291 42.8601 27.2291 44.3185ZM32.3958 41.0604C32.3958 39.0124 32.6673 37.1195 33.2103 35.3818C33.7689 33.6286 34.5834 32.1236 35.654 30.8669C36.7245 29.5947 38.0666 28.6017 39.6801 27.888C41.2937 27.1743 43.1478 26.8175 45.2423 26.8175C46.7163 26.8175 48.2057 26.9804 49.7107 27.3062C51.2312 27.632 52.4491 28.0276 53.3645 28.4931C53.4421 29.7033 53.4343 31.0143 53.3412 32.4262C53.2481 33.8225 53.1007 35.1258 52.899 36.336H50.339L49.3616 32.4495C49.253 32.015 49.1366 31.6504 49.0125 31.3556C48.8884 31.0453 48.6789 30.7661 48.3841 30.5178C47.9963 30.2075 47.4843 29.9515 46.8481 29.7498C46.2275 29.5326 45.5216 29.424 44.7303 29.424C42.5582 29.424 40.8748 30.3006 39.6801 32.0538C38.4855 33.807 37.8881 36.4524 37.8881 39.9898C37.8881 43.6979 38.5553 46.4752 39.8896 48.3215C41.2394 50.1678 43.1323 51.0909 45.5681 51.0909C47.0266 51.0909 48.3298 50.8039 49.478 50.2298C50.6261 49.6558 51.557 48.9808 52.2707 48.2051L53.6903 49.4851C52.9456 51.0211 51.7354 52.2545 50.0598 53.1855C48.3997 54.1008 46.4292 54.5585 44.1485 54.5585C42.2091 54.5585 40.4947 54.225 39.0052 53.5578C37.5313 52.8752 36.3056 51.9365 35.3281 50.7418C34.3662 49.5472 33.637 48.1198 33.1405 46.4596C32.644 44.7995 32.3958 42.9998 32.3958 41.0604ZM70.5847 51.6262V54H57.6916V51.6262L60.5541 51.184C60.9575 51.1219 61.2678 50.9745 61.485 50.7418C61.7023 50.5091 61.8109 50.1833 61.8109 49.7644V17.4618C61.8109 17.0584 61.6945 16.7404 61.4618 16.5076C61.2446 16.2749 60.942 16.1275 60.5541 16.0655L57.133 15.5535V13.4356C57.7847 13.2339 58.4906 13.0555 59.2509 12.9004C60.0266 12.7452 60.8024 12.6211 61.5781 12.528C62.3694 12.4194 63.1452 12.3341 63.9054 12.272C64.6812 12.2099 65.3949 12.1712 66.0465 12.1556L66.7912 12.9236V30.4713C68.0635 29.168 69.4909 28.2526 71.0734 27.7251C72.656 27.1821 74.254 26.9105 75.8676 26.9105C78.9551 26.9105 81.0574 27.8104 82.1745 29.6102C83.2916 31.4099 83.8501 33.9156 83.8501 37.1273V49.7644C83.8501 50.1678 83.9587 50.4936 84.176 50.7418C84.4087 50.9745 84.7267 51.1219 85.1301 51.184L87.9927 51.6262V54H75.0763V51.6262L77.613 51.184C77.9854 51.1219 78.288 50.9823 78.5207 50.7651C78.7534 50.5324 78.8698 50.1988 78.8698 49.7644V38.0349C78.8698 35.4749 78.5207 33.5665 77.8225 32.3098C77.1243 31.0376 75.7745 30.4015 73.773 30.4015C72.5473 30.4015 71.3294 30.5876 70.1192 30.96C68.9246 31.3324 67.8152 31.9064 66.7912 32.6822V49.7644C66.7912 50.1833 66.8998 50.5091 67.117 50.7418C67.3343 50.959 67.6446 51.1064 68.048 51.184L70.5847 51.6262ZM115.571 54.3956C114.346 54.3956 113.392 54.0776 112.709 53.4415C112.026 52.8053 111.553 51.983 111.289 50.9745C110.265 52.0296 109.086 52.8907 107.752 53.5578C106.418 54.2095 104.835 54.5353 103.004 54.5353C100.103 54.5353 97.9928 53.7362 96.674 52.1382C95.3707 50.5246 94.7191 48.0887 94.7191 44.8305V32.3331C94.7191 31.9452 94.6182 31.6272 94.4165 31.3789C94.2304 31.1152 93.9278 30.9522 93.5089 30.8902L90.5998 30.3782V28.0975C91.8876 27.7251 93.2839 27.4536 94.7889 27.2829C96.2939 27.0967 97.6825 26.9881 98.9547 26.9571L99.6995 27.7018V43.9695C99.6995 46.4519 100.056 48.2749 100.77 49.4385C101.484 50.6022 102.818 51.184 104.773 51.184C105.921 51.184 107.023 50.9978 108.078 50.6255C109.148 50.2531 110.149 49.679 111.08 48.9033V32.3331C111.08 31.9297 110.971 31.6039 110.754 31.3556C110.552 31.0919 110.25 30.929 109.846 30.8669L106.379 30.3084V28.0276C107.698 27.6863 109.187 27.4225 110.847 27.2364C112.507 27.0502 113.997 26.9571 115.315 26.9571L116.06 27.7018V49.6015C116.06 50.1445 116.184 50.5246 116.433 50.7418C116.681 50.9435 117.007 51.0676 117.41 51.1142L120.063 51.3469V53.5578C119.551 53.7285 118.861 53.9069 117.992 54.0931C117.123 54.2948 116.316 54.3956 115.571 54.3956ZM132.556 12.9004V49.7644C132.556 50.1833 132.664 50.5091 132.882 50.7418C133.099 50.9745 133.409 51.1219 133.813 51.184L137.187 51.6727V54H122.921V51.6262L126.295 51.184C126.699 51.1219 127.009 50.9745 127.226 50.7418C127.459 50.5091 127.576 50.191 127.576 49.7876V17.5316C127.576 17.1127 127.459 16.7869 127.226 16.5542C127.009 16.3215 126.699 16.1741 126.295 16.112L122.758 15.6233V13.4822C123.425 13.2805 124.147 13.1021 124.922 12.9469C125.698 12.7918 126.482 12.6599 127.273 12.5513C128.08 12.4427 128.871 12.3573 129.647 12.2953C130.423 12.2177 131.144 12.1712 131.811 12.1556L132.556 12.9004ZM143.93 47.4138V30.9135L139.904 30.4015V28.1905L142.859 27.7949C143.278 27.7328 143.596 27.5932 143.813 27.376C144.031 27.1588 144.194 26.8562 144.302 26.4684L145.955 19.6262H148.84L148.91 27.5389H157.614V30.7273H148.933V45.7615C148.933 47.7784 149.275 49.1282 149.957 49.8109C150.656 50.4936 151.594 50.8349 152.773 50.8349C153.751 50.8349 154.651 50.6565 155.473 50.2996C156.311 49.9428 157.032 49.4308 157.637 48.7636L159.08 50.0902C158.382 51.5331 157.304 52.6347 155.845 53.3949C154.403 54.1396 152.805 54.512 151.051 54.512C150.105 54.512 149.197 54.4034 148.328 54.1862C147.46 53.969 146.699 53.5966 146.048 53.0691C145.412 52.5261 144.9 51.7968 144.512 50.8815C144.124 49.9661 143.93 48.8102 143.93 47.4138ZM183.651 54H162.682L161.728 51.9287L177.903 30.0291H172.713C171.999 30.0291 171.27 30.0524 170.525 30.0989C169.796 30.1299 169.152 30.1998 168.594 30.3084C168.097 30.4015 167.74 30.5488 167.523 30.7505C167.306 30.9367 167.143 31.2548 167.034 31.7047L166.01 36.0102H163.404C163.264 34.5673 163.194 33.1088 163.194 31.6349C163.194 30.161 163.264 28.7956 163.404 27.5389H183.232L184.163 29.6102L168.151 51.3935H173.551C174.435 51.3935 175.288 51.3779 176.111 51.3469C176.933 51.3004 177.709 51.2228 178.438 51.1142C178.857 51.0521 179.206 50.9358 179.485 50.7651C179.78 50.5789 179.982 50.2764 180.09 49.8575L181.44 45.2262L184 45.552C184.078 46.9018 184.086 48.3137 184.023 49.7876C183.977 51.2461 183.853 52.6502 183.651 54Z" fill="black"/>
<path d="M64.7698 82H59.5465V81.3324L61.0781 81.0967C61.196 81.0793 61.2832 81.0378 61.34 80.9724C61.401 80.9069 61.4316 80.8175 61.4316 80.704V72.5091H60.6592C60.3712 72.5091 60.1072 72.5244 59.8672 72.5549C59.6272 72.5811 59.4461 72.616 59.324 72.6596C59.2236 72.6945 59.145 72.7425 59.0883 72.8036C59.0316 72.8604 58.9901 72.9411 58.964 73.0458L58.5385 74.8982H57.753C57.7094 74.3396 57.6941 73.8095 57.7072 73.3076C57.7247 72.8058 57.764 72.2953 57.825 71.776H66.5174C66.5741 72.2953 66.6047 72.808 66.609 73.3142C66.6134 73.8204 66.5938 74.3484 66.5501 74.8982H65.7647L65.3458 73.0458C65.324 72.9411 65.2847 72.8604 65.228 72.8036C65.1712 72.7425 65.0949 72.6945 64.9989 72.6596C64.868 72.6116 64.689 72.5745 64.4621 72.5484C64.2396 72.5222 63.9778 72.5091 63.6767 72.5091H62.8847V80.704C62.8847 80.8175 62.9152 80.9069 62.9763 80.9724C63.0374 81.0378 63.1247 81.0793 63.2381 81.0967L64.7698 81.3324V82ZM67.0814 78.3018C67.0814 77.6167 67.1753 77.0233 67.3629 76.5215C67.5549 76.0196 67.8123 75.6095 68.1353 75.2909C68.4582 74.9724 68.8378 74.7367 69.2742 74.584C69.7149 74.4313 70.1818 74.3549 70.6749 74.3549C71.2553 74.3549 71.7571 74.4487 72.1803 74.6364C72.608 74.8196 72.9571 75.0793 73.2276 75.4153C73.5025 75.7469 73.7054 76.1527 73.8363 76.6327C73.9673 77.1084 74.0327 77.6364 74.0327 78.2167C74.0327 78.9018 73.9367 79.4953 73.7447 79.9971C73.5571 80.4945 73.3018 80.9025 72.9789 81.2211C72.656 81.5396 72.2742 81.7753 71.8334 81.928C71.3927 82.0807 70.9258 82.1571 70.4327 82.1571C69.8523 82.1571 69.3483 82.0655 68.9207 81.8822C68.4974 81.6945 68.1505 81.4349 67.88 81.1033C67.6094 80.7673 67.4087 80.3615 67.2778 79.8858C67.1469 79.4058 67.0814 78.8778 67.0814 78.3018ZM72.4814 78.3476C72.4814 77.8545 72.4487 77.4073 72.3833 77.0058C72.3222 76.6044 72.2153 76.264 72.0625 75.9847C71.9098 75.7011 71.7069 75.4829 71.4538 75.3302C71.2007 75.1775 70.8843 75.1011 70.5047 75.1011C69.8676 75.1011 69.3942 75.3433 69.0843 75.8276C68.7789 76.312 68.6262 77.0909 68.6262 78.1644C68.6262 78.6531 68.6567 79.0982 68.7178 79.4996C68.7833 79.9011 68.8902 80.2436 69.0385 80.5273C69.1913 80.8065 69.3942 81.0247 69.6473 81.1818C69.9047 81.3345 70.2254 81.4109 70.6094 81.4109C71.2422 81.4109 71.7113 81.1687 72.0167 80.6844C72.3265 80.1956 72.4814 79.4167 72.4814 78.3476ZM81.461 71.776C81.8843 71.776 82.2858 71.7607 82.6654 71.7302C83.045 71.6953 83.4378 71.6778 83.8436 71.6778C85.5279 71.6778 86.7694 72.0989 87.5679 72.9411C88.3665 73.7789 88.7658 74.9964 88.7658 76.5935C88.7658 77.5011 88.6458 78.304 88.4058 79.0022C88.1658 79.696 87.8254 80.2742 87.3847 80.7367C86.9439 81.1993 86.4072 81.5462 85.7745 81.7775C85.1418 82.0087 84.437 82.1156 83.6603 82.0982C83.3723 82.0938 83.0254 82.0764 82.6196 82.0458C82.2138 82.0153 81.8341 82 81.4807 82H79.3599V81.3324L80.4138 81.1425C80.5228 81.1251 80.6058 81.0815 80.6625 81.0116C80.7192 80.9418 80.7476 80.8567 80.7476 80.7564V73.0262C80.7476 72.9389 80.7214 72.8625 80.669 72.7971C80.6167 72.7316 80.5468 72.6902 80.4596 72.6727L79.3599 72.4567V71.776H81.461ZM82.2072 81.2407C82.3948 81.28 82.6436 81.3105 82.9534 81.3324C83.2676 81.3498 83.5468 81.3564 83.7912 81.352C84.8734 81.3215 85.7112 80.9549 86.3047 80.2524C86.8981 79.5455 87.1948 78.4065 87.1948 76.8356C87.1948 75.3215 86.8916 74.2065 86.285 73.4909C85.6828 72.7709 84.7643 72.4109 83.5294 72.4109C83.2501 72.4109 82.9948 72.424 82.7636 72.4502C82.5367 72.4764 82.3512 72.4938 82.2072 72.5025V81.2407ZM90.3197 78.3018C90.3197 77.6167 90.4135 77.0233 90.6012 76.5215C90.7932 76.0196 91.0506 75.6095 91.3735 75.2909C91.6964 74.9724 92.0761 74.7367 92.5124 74.584C92.9532 74.4313 93.4201 74.3549 93.9132 74.3549C94.4935 74.3549 94.9954 74.4487 95.4186 74.6364C95.8463 74.8196 96.1954 75.0793 96.4659 75.4153C96.7408 75.7469 96.9437 76.1527 97.0746 76.6327C97.2055 77.1084 97.271 77.6364 97.271 78.2167C97.271 78.9018 97.175 79.4953 96.983 79.9971C96.7954 80.4945 96.5401 80.9025 96.2172 81.2211C95.8943 81.5396 95.5124 81.7753 95.0717 81.928C94.631 82.0807 94.1641 82.1571 93.671 82.1571C93.0906 82.1571 92.5866 82.0655 92.159 81.8822C91.7357 81.6945 91.3888 81.4349 91.1183 81.1033C90.8477 80.7673 90.647 80.3615 90.5161 79.8858C90.3852 79.4058 90.3197 78.8778 90.3197 78.3018ZM95.7197 78.3476C95.7197 77.8545 95.687 77.4073 95.6215 77.0058C95.5604 76.6044 95.4535 76.264 95.3008 75.9847C95.1481 75.7011 94.9452 75.4829 94.6921 75.3302C94.439 75.1775 94.1226 75.1011 93.743 75.1011C93.1059 75.1011 92.6324 75.3433 92.3226 75.8276C92.0172 76.312 91.8644 77.0909 91.8644 78.1644C91.8644 78.6531 91.895 79.0982 91.9561 79.4996C92.0215 79.9011 92.1284 80.2436 92.2768 80.5273C92.4295 80.8065 92.6324 81.0247 92.8855 81.1818C93.143 81.3345 93.4637 81.4109 93.8477 81.4109C94.4804 81.4109 94.9495 81.1687 95.255 80.6844C95.5648 80.1956 95.7197 79.4167 95.7197 78.3476ZM108.384 78.0793L106.643 73.0655L104.994 78.0793H108.384ZM105.301 81.3324V82H101.898V81.3324L102.696 81.1425C102.792 81.1207 102.873 81.0815 102.939 81.0247C103.008 80.968 103.059 80.8916 103.089 80.7956L106.211 71.7433H107.612L110.865 80.7956C110.9 80.8916 110.95 80.968 111.016 81.0247C111.081 81.0771 111.162 81.1164 111.258 81.1425L112.011 81.3324V82H108.136V81.3324L109.432 81.0967L108.659 78.8778H104.732L104.005 81.0967L105.301 81.3324ZM116.384 81.4109C117.061 81.4109 117.606 81.1775 118.021 80.7105C118.435 80.2393 118.649 79.4255 118.662 78.2691C118.671 77.2873 118.514 76.5498 118.191 76.0567C117.872 75.5636 117.377 75.3171 116.705 75.3171C116.338 75.3171 116.013 75.3782 115.73 75.5004C115.446 75.6225 115.217 75.7644 115.042 75.9258V81.0902C115.195 81.1862 115.387 81.2647 115.618 81.3258C115.854 81.3825 116.109 81.4109 116.384 81.4109ZM116.489 84.5855V85.2465H112.483V84.5855L113.295 84.4545C113.408 84.4371 113.493 84.3935 113.55 84.3236C113.611 84.2582 113.642 84.1687 113.642 84.0553V75.9324C113.642 75.8189 113.613 75.7251 113.557 75.6509C113.504 75.5767 113.423 75.5309 113.314 75.5135L112.391 75.3825V74.7411C112.754 74.6364 113.129 74.5535 113.517 74.4924C113.91 74.4313 114.29 74.3985 114.656 74.3942L114.892 74.6233L114.99 75.376C115.23 75.088 115.533 74.8458 115.9 74.6495C116.271 74.4531 116.722 74.3549 117.255 74.3549C117.669 74.3549 118.053 74.4247 118.407 74.5644C118.765 74.6996 119.072 74.9113 119.33 75.1993C119.587 75.4873 119.79 75.8582 119.938 76.312C120.087 76.7615 120.161 77.296 120.161 77.9156C120.161 78.5745 120.074 79.168 119.899 79.696C119.725 80.2196 119.474 80.6625 119.146 81.0247C118.823 81.3869 118.424 81.6662 117.949 81.8625C117.477 82.0545 116.945 82.1505 116.351 82.1505C116.151 82.1505 115.933 82.1353 115.697 82.1047C115.466 82.0785 115.247 82.0349 115.042 81.9738V84.0618C115.042 84.1753 115.073 84.2647 115.134 84.3302C115.195 84.4 115.285 84.4415 115.402 84.4545L116.489 84.5855ZM125.296 81.4109C125.973 81.4109 126.518 81.1775 126.933 80.7105C127.347 80.2393 127.561 79.4255 127.574 78.2691C127.583 77.2873 127.426 76.5498 127.103 76.0567C126.784 75.5636 126.289 75.3171 125.617 75.3171C125.25 75.3171 124.925 75.3782 124.642 75.5004C124.358 75.6225 124.129 75.7644 123.954 75.9258V81.0902C124.107 81.1862 124.299 81.2647 124.53 81.3258C124.766 81.3825 125.021 81.4109 125.296 81.4109ZM125.401 84.5855V85.2465H121.395V84.5855L122.207 84.4545C122.32 84.4371 122.405 84.3935 122.462 84.3236C122.523 84.2582 122.554 84.1687 122.554 84.0553V75.9324C122.554 75.8189 122.525 75.7251 122.469 75.6509C122.416 75.5767 122.336 75.5309 122.226 75.5135L121.304 75.3825V74.7411C121.666 74.6364 122.041 74.5535 122.429 74.4924C122.822 74.4313 123.202 74.3985 123.568 74.3942L123.804 74.6233L123.902 75.376C124.142 75.088 124.445 74.8458 124.812 74.6495C125.183 74.4531 125.634 74.3549 126.167 74.3549C126.581 74.3549 126.965 74.4247 127.319 74.5644C127.677 74.6996 127.984 74.9113 128.242 75.1993C128.499 75.4873 128.702 75.8582 128.85 76.312C128.999 76.7615 129.073 77.296 129.073 77.9156C129.073 78.5745 128.986 79.168 128.811 79.696C128.637 80.2196 128.386 80.6625 128.058 81.0247C127.736 81.3869 127.336 81.6662 126.861 81.8625C126.389 82.0545 125.857 82.1505 125.264 82.1505C125.063 82.1505 124.845 82.1353 124.609 82.1047C124.378 82.0785 124.16 82.0349 123.954 81.9738V84.0618C123.954 84.1753 123.985 84.2647 124.046 84.3302C124.107 84.4 124.197 84.4415 124.314 84.4545L125.401 84.5855Z" fill="#8E8E8E"/>
</svg>
