<svg width="190" height="43" viewBox="0 0 190 43" fill="none" xmlns="http://www.w3.org/2000/svg">
<path d="M26.7884 31.7135C26.7884 33.0167 26.5401 34.3355 26.0436 35.6698C25.5472 36.9886 24.7481 38.1755 23.6465 39.2305C22.5605 40.2701 21.1253 41.1234 19.3411 41.7905C17.5724 42.4422 15.4313 42.768 12.9178 42.768C10.513 42.768 8.24776 42.4887 6.12218 41.9302C3.99661 41.3716 2.16582 40.7278 0.629818 39.9985C0.583273 39.1607 0.567758 38.2841 0.583273 37.3687C0.614303 36.4378 0.653091 35.5302 0.699636 34.6458C0.761697 33.7459 0.839273 32.8848 0.932364 32.0625C1.04097 31.2247 1.15733 30.4645 1.28145 29.7818H6.28509L7.19273 35.8095C7.25479 36.1663 7.35564 36.4921 7.49527 36.7869C7.63491 37.0817 7.85988 37.3532 8.17018 37.6015C8.63564 38.0204 9.31055 38.4238 10.1949 38.8116C11.0793 39.1995 12.0567 39.3935 13.1273 39.3935C14.6633 39.3935 15.8579 38.9668 16.7113 38.1135C17.5801 37.2601 18.0145 36.143 18.0145 34.7622C18.0145 33.7847 17.8051 32.9159 17.3862 32.1556C16.9828 31.3954 16.4242 30.705 15.7105 30.0844C15.0124 29.4638 14.1823 28.8819 13.2204 28.3389C12.2739 27.7804 11.2732 27.2296 10.2182 26.6865C9.008 26.0504 7.83661 25.4065 6.704 24.7549C5.57139 24.0878 4.57842 23.343 3.72509 22.5207C2.87176 21.6829 2.18133 20.7132 1.65382 19.6116C1.14182 18.4945 0.885818 17.1758 0.885818 15.6553C0.885818 14.1348 1.15733 12.7229 1.70036 11.4196C2.25891 10.1008 3.08121 8.96824 4.16727 8.02182C5.26885 7.05988 6.6497 6.3074 8.30982 5.76437C9.96994 5.22133 11.9016 4.94982 14.1047 4.94982C15.951 4.94982 17.8206 5.12824 19.7135 5.48509C21.6063 5.84194 23.2509 6.30739 24.6473 6.88145C24.7714 8.41746 24.7792 10.031 24.6705 11.7222C24.5775 13.3978 24.4068 14.9804 24.1585 16.4698H19.2945L18.3171 11.1869C18.224 10.737 18.0999 10.3646 17.9447 10.0698C17.8051 9.77503 17.5956 9.52679 17.3164 9.32509C16.8975 9.01479 16.3467 8.76655 15.664 8.58036C14.9968 8.39418 14.3297 8.30109 13.6625 8.30109C12.2662 8.30109 11.1724 8.69673 10.3811 9.488C9.60533 10.2638 9.21745 11.2878 9.21745 12.56C9.21745 13.4444 9.39588 14.2201 9.75273 14.8873C10.1096 15.5544 10.6138 16.1673 11.2655 16.7258C11.9326 17.2844 12.7472 17.8274 13.7091 18.3549C14.671 18.8824 15.7493 19.4565 16.944 20.0771C18.2783 20.7598 19.5428 21.4812 20.7375 22.2415C21.9321 23.0017 22.9716 23.8395 23.856 24.7549C24.7559 25.6703 25.4696 26.7021 25.9971 27.8502C26.5246 28.9828 26.7884 30.2705 26.7884 31.7135ZM30.5885 29.0604C30.5885 26.7331 30.9299 24.6773 31.6125 22.8931C32.2952 21.1088 33.2339 19.6272 34.4285 18.448C35.6387 17.2533 37.0816 16.3535 38.7573 15.7484C40.4329 15.1278 42.2482 14.8175 44.2031 14.8175C45.8477 14.8175 47.4845 15.0114 49.1136 15.3993C50.7427 15.7872 52.0925 16.2759 53.1631 16.8655C53.2717 18.4325 53.2717 19.9918 53.1631 21.5433C53.07 23.0793 52.8838 24.561 52.6045 25.9884H48.5318L47.2053 21.3105C47.0501 20.7675 46.895 20.3564 46.7398 20.0771C46.6002 19.7823 46.4295 19.5341 46.2278 19.3324C45.9796 19.0996 45.6615 18.9057 45.2736 18.7505C44.8858 18.5954 44.4591 18.5178 43.9936 18.5178C42.7679 18.5178 41.7362 19.2393 40.8984 20.6822C40.0605 22.1251 39.6416 24.5455 39.6416 27.9433C39.6416 31.0773 40.1071 33.4512 41.038 35.0647C41.9689 36.6628 43.5437 37.4618 45.7624 37.4618C47.1277 37.4618 48.3146 37.2213 49.3231 36.7404C50.3471 36.2439 51.1384 35.7474 51.6969 35.2509L53.4889 36.6938C52.9148 38.3695 51.7202 39.7736 49.9049 40.9062C48.1052 42.0388 45.8012 42.6051 42.9929 42.6051C40.8518 42.6051 38.9978 42.256 37.4307 41.5578C35.8637 40.8596 34.5759 39.9055 33.5675 38.6953C32.559 37.4851 31.8065 36.0499 31.31 34.3898C30.829 32.7297 30.5885 30.9532 30.5885 29.0604ZM71.0289 38.6953V42H56.4136V38.672L58.9271 38.2065C59.2684 38.1445 59.5322 38.0048 59.7184 37.7876C59.9201 37.5549 60.0209 37.2601 60.0209 36.9033V6.416C60.0209 6.05915 59.9278 5.77212 59.7416 5.55491C59.5555 5.32218 59.2917 5.17479 58.9504 5.11273L55.9249 4.624V1.36582C56.7627 1.14861 57.6704 0.962425 58.6478 0.807274C59.6253 0.636607 60.6105 0.504728 61.6035 0.411636C62.5964 0.303032 63.5816 0.225456 64.5591 0.178909C65.5365 0.132365 66.4442 0.109093 67.282 0.109093L68.4224 1.20291V18.0524C69.4929 17.0128 70.7264 16.2371 72.1227 15.7251C73.5191 15.2131 75.0396 14.9571 76.6842 14.9571C79.8027 14.9571 81.9361 15.8337 83.0842 17.5869C84.2323 19.3246 84.8064 21.7838 84.8064 24.9644V36.9033C84.8064 37.2601 84.8995 37.5549 85.0856 37.7876C85.2718 38.0048 85.5356 38.1445 85.8769 38.2065L88.4136 38.672V42H73.7984V38.6953L75.3576 38.2298C75.699 38.1057 75.955 37.9428 76.1256 37.7411C76.3118 37.5394 76.4049 37.2601 76.4049 36.9033V25.8953C76.4049 23.7232 76.0868 22.1872 75.4507 21.2873C74.8146 20.3719 73.8061 19.9142 72.4253 19.9142C71.7892 19.9142 71.122 20.0073 70.4238 20.1935C69.7412 20.3796 69.074 20.6589 68.4224 21.0313V36.9033C68.4224 37.2601 68.5077 37.5394 68.6784 37.7411C68.849 37.9428 69.105 38.1057 69.4464 38.2298L71.0289 38.6953ZM116.232 42.4422C114.882 42.4422 113.742 42.1939 112.811 41.6975C111.88 41.1855 111.158 40.4019 110.646 39.3469C109.669 40.3709 108.528 41.1622 107.225 41.7207C105.937 42.2638 104.324 42.5353 102.384 42.5353C99.6228 42.5353 97.5437 41.7905 96.1474 40.3011C94.751 38.7961 94.0528 36.4921 94.0528 33.3891V21.4967C94.0528 21.1554 93.9675 20.8684 93.7968 20.6356C93.6262 20.3874 93.3702 20.2245 93.0288 20.1469L90.5386 19.5185V16.0742C91.3454 15.888 92.2065 15.7173 93.1219 15.5622C94.0528 15.407 94.9837 15.2829 95.9146 15.1898C96.8611 15.0812 97.7997 15.0036 98.7306 14.9571C99.6615 14.9105 100.53 14.8873 101.337 14.8873L102.454 15.9113V32.2953C102.454 34.4984 102.757 35.9956 103.362 36.7869C103.967 37.5627 104.906 37.9505 106.178 37.9505C106.814 37.9505 107.45 37.8575 108.086 37.6713C108.722 37.4696 109.351 37.1903 109.971 36.8335V21.4735C109.971 21.1321 109.886 20.8373 109.715 20.5891C109.545 20.3408 109.289 20.1779 108.947 20.1004L106.294 19.472V16.0276C107.117 15.8415 107.993 15.6785 108.924 15.5389C109.871 15.3838 110.817 15.2596 111.763 15.1665C112.725 15.0735 113.672 15.0036 114.603 14.9571C115.549 14.9105 116.433 14.8873 117.256 14.8873L118.373 15.9113V36.6938C118.373 37.1903 118.474 37.5394 118.675 37.7411C118.893 37.9428 119.195 38.0669 119.583 38.1135L121.864 38.3927V41.5345C121.29 41.7052 120.46 41.8992 119.374 42.1164C118.287 42.3336 117.24 42.4422 116.232 42.4422ZM136.398 1.15636V36.9033C136.398 37.2756 136.491 37.5704 136.677 37.7876C136.863 38.0048 137.135 38.1445 137.492 38.2065L140.284 38.6953V42H124.086V38.672L126.902 38.2065C127.244 38.1445 127.508 38.0048 127.694 37.7876C127.895 37.5704 127.996 37.2834 127.996 36.9265V6.64873C127.996 6.29188 127.903 6.00485 127.717 5.78764C127.531 5.55491 127.267 5.40752 126.926 5.34546L123.877 4.88V1.59855C124.715 1.38133 125.622 1.18739 126.6 1.01673C127.577 0.830547 128.563 0.675396 129.556 0.551273C130.564 0.411638 131.557 0.303032 132.535 0.225456C133.527 0.147881 134.443 0.109093 135.281 0.109093L136.398 1.15636ZM145.99 34.2036V19.9375L142.406 19.2858V16.2371L145.315 15.632C145.734 15.5544 146.045 15.4148 146.246 15.2131C146.464 15.0114 146.642 14.7166 146.782 14.3287L149.365 6.97454H154.019L154.322 15.5156H161.606V19.8211H154.415V32.3185C154.415 34.0873 154.679 35.3052 155.206 35.9724C155.734 36.6395 156.517 36.9731 157.557 36.9731C158.177 36.9731 158.837 36.8645 159.535 36.6473C160.249 36.4145 160.916 36.0344 161.536 35.5069L163.166 37.3455C162.374 39.0676 161.141 40.3399 159.465 41.1622C157.805 41.9845 155.904 42.3956 153.763 42.3956C151.374 42.3956 149.481 41.8216 148.085 40.6735C146.689 39.5253 145.99 37.3687 145.99 34.2036ZM188.533 42H166.098L164.725 38.9978L179.456 18.8204H176.361C175.787 18.8204 175.19 18.8436 174.569 18.8902C173.949 18.9212 173.421 18.9755 172.987 19.0531C172.614 19.1152 172.312 19.2238 172.079 19.3789C171.846 19.5185 171.676 19.8133 171.567 20.2633L170.427 24.9178H166.61C166.393 23.3818 166.245 21.7838 166.168 20.1236C166.106 18.4635 166.129 16.9275 166.238 15.5156H187.928L189.208 18.4945L174.779 38.6487H177.618C178.332 38.6487 179.069 38.6332 179.829 38.6022C180.605 38.5556 181.287 38.4781 181.877 38.3695C182.249 38.3074 182.552 38.1988 182.784 38.0436C183.017 37.873 183.188 37.6247 183.296 37.2989L184.949 32.1789L188.649 32.5978C188.82 34.1648 188.89 35.7474 188.859 37.3455C188.828 38.928 188.719 40.4795 188.533 42Z" fill="black"/>
</svg>
