<svg width="60" height="60" viewBox="0 0 60 60" fill="none" xmlns="http://www.w3.org/2000/svg">
<path d="M50.1544 46.7438C52.8471 43.504 54.7199 39.6633 55.6144 35.5467C56.5089 31.43 56.3987 27.1584 55.2932 23.0934C54.1876 19.0283 52.1193 15.2893 49.2631 12.1926C46.4069 9.09594 42.8469 6.73275 38.8843 5.30293C34.9216 3.87311 30.6728 3.41873 26.4974 3.97823C22.322 4.53773 18.3428 6.09465 14.8963 8.51728C11.4499 10.9399 8.63765 14.157 6.69749 17.8963C4.75732 21.6357 3.74632 25.7874 3.75001 30.0001C3.75143 36.1242 5.90953 42.0522 9.84564 46.7438L9.80814 46.7757C9.93939 46.9332 10.0894 47.0682 10.2244 47.2238C10.3931 47.417 10.575 47.5988 10.7494 47.7863C11.2744 48.3563 11.8144 48.9038 12.3806 49.4176C12.5531 49.5751 12.7313 49.7213 12.9056 49.8713C13.5056 50.3888 14.1225 50.8801 14.7619 51.3376C14.8444 51.3938 14.9194 51.467 15.0019 51.5251V51.5026C19.3933 54.5929 24.6321 56.2514 30.0019 56.2514C35.3717 56.2514 40.6104 54.5929 45.0019 51.5026V51.5251C45.0844 51.467 45.1575 51.3938 45.2419 51.3376C45.8794 50.8782 46.4981 50.3888 47.0981 49.8713C47.2725 49.7213 47.4506 49.5732 47.6231 49.4176C48.1894 48.902 48.7294 48.3563 49.2544 47.7863C49.4288 47.5988 49.6088 47.417 49.7794 47.2238C49.9125 47.0682 50.0644 46.9332 50.1956 46.7738L50.1544 46.7438ZM30 15.0001C31.6688 15.0001 33.3001 15.4949 34.6876 16.4221C36.0752 17.3492 37.1566 18.6669 37.7952 20.2087C38.4339 21.7504 38.601 23.4469 38.2754 25.0837C37.9498 26.7204 37.1462 28.2238 35.9662 29.4038C34.7862 30.5838 33.2828 31.3874 31.6461 31.713C30.0094 32.0385 28.3129 31.8714 26.7711 31.2328C25.2294 30.5942 23.9116 29.5127 22.9845 28.1252C22.0574 26.7377 21.5625 25.1064 21.5625 23.4376C21.5625 21.1998 22.4515 19.0537 24.0338 17.4714C25.6161 15.889 27.7622 15.0001 30 15.0001V15.0001ZM15.0131 46.7438C15.0457 44.2819 16.0462 41.9317 17.7982 40.2018C19.5502 38.4719 21.9129 37.5013 24.375 37.5001H35.625C38.0872 37.5013 40.4498 38.4719 42.2018 40.2018C43.9539 41.9317 44.9544 44.2819 44.9869 46.7438C40.8747 50.4495 35.5355 52.5002 30 52.5002C24.4645 52.5002 19.1253 50.4495 15.0131 46.7438V46.7438Z" fill="#028AB6"/>
</svg>
